<mxfile host="app.diagrams.net" agent="Mozilla/5.0 (Windows NT 10.0; Win64; x64) AppleWebKit/537.36 (KHTML, like Gecko) Chrome/124.0.0.0 Safari/537.36" version="26.2.6">
  <diagram name="Trang-1" id="uvnX7lSwFFK0e2S2e1eP">
    <mxGraphModel dx="345" dy="527" grid="1" gridSize="10" guides="1" tooltips="1" connect="1" arrows="1" fold="1" page="1" pageScale="1" pageWidth="827" pageHeight="1169" math="0" shadow="0">
      <root>
        <mxCell id="0" />
        <mxCell id="1" parent="0" />
        <mxCell id="cy8GEhEIshhKAIJwH2Ll-1" value="tên" style="ellipse;whiteSpace=wrap;html=1;align=center;fillColor=#dae8fc;strokeColor=#6c8ebf;" vertex="1" parent="1">
          <mxGeometry x="1546" y="320" width="100" height="40" as="geometry" />
        </mxCell>
        <mxCell id="cy8GEhEIshhKAIJwH2Ll-2" value="đội" style="whiteSpace=wrap;html=1;align=center;fillColor=#dae8fc;strokeColor=#6c8ebf;" vertex="1" parent="1">
          <mxGeometry x="1522" y="440" width="90" height="40" as="geometry" />
        </mxCell>
        <mxCell id="cy8GEhEIshhKAIJwH2Ll-3" value="id" style="ellipse;whiteSpace=wrap;html=1;align=center;fontStyle=4;fillColor=#dae8fc;strokeColor=#6c8ebf;" vertex="1" parent="1">
          <mxGeometry x="1860.5" y="320" width="79.5" height="40" as="geometry" />
        </mxCell>
        <mxCell id="cy8GEhEIshhKAIJwH2Ll-4" value="huấn luyện viên" style="whiteSpace=wrap;html=1;align=center;fillColor=#dae8fc;strokeColor=#6c8ebf;" vertex="1" parent="1">
          <mxGeometry x="1830" y="440" width="100" height="40" as="geometry" />
        </mxCell>
        <mxCell id="cy8GEhEIshhKAIJwH2Ll-5" value="tên" style="ellipse;whiteSpace=wrap;html=1;align=center;fillColor=#dae8fc;strokeColor=#6c8ebf;" vertex="1" parent="1">
          <mxGeometry x="1750" y="340" width="90" height="40" as="geometry" />
        </mxCell>
        <mxCell id="cy8GEhEIshhKAIJwH2Ll-6" value="" style="endArrow=none;html=1;rounded=0;exitX=0.5;exitY=1;exitDx=0;exitDy=0;entryX=0.614;entryY=0.05;entryDx=0;entryDy=0;entryPerimeter=0;" edge="1" parent="1" source="cy8GEhEIshhKAIJwH2Ll-5" target="cy8GEhEIshhKAIJwH2Ll-4">
          <mxGeometry width="50" height="50" relative="1" as="geometry">
            <mxPoint x="1870.5" y="550" as="sourcePoint" />
            <mxPoint x="1860.5" y="500" as="targetPoint" />
          </mxGeometry>
        </mxCell>
        <mxCell id="cy8GEhEIshhKAIJwH2Ll-7" value="" style="endArrow=none;html=1;rounded=0;exitX=0.5;exitY=1;exitDx=0;exitDy=0;" edge="1" parent="1" source="cy8GEhEIshhKAIJwH2Ll-9">
          <mxGeometry width="50" height="50" relative="1" as="geometry">
            <mxPoint x="1567" y="370" as="sourcePoint" />
            <mxPoint x="1570" y="440" as="targetPoint" />
          </mxGeometry>
        </mxCell>
        <mxCell id="cy8GEhEIshhKAIJwH2Ll-8" value="" style="endArrow=none;html=1;rounded=0;entryX=0.5;entryY=0;entryDx=0;entryDy=0;exitX=0.5;exitY=1;exitDx=0;exitDy=0;" edge="1" parent="1" source="cy8GEhEIshhKAIJwH2Ll-1" target="cy8GEhEIshhKAIJwH2Ll-2">
          <mxGeometry width="50" height="50" relative="1" as="geometry">
            <mxPoint x="1611" y="380" as="sourcePoint" />
            <mxPoint x="1622" y="450" as="targetPoint" />
          </mxGeometry>
        </mxCell>
        <mxCell id="cy8GEhEIshhKAIJwH2Ll-9" value="id" style="ellipse;whiteSpace=wrap;html=1;align=center;fontStyle=4;fillColor=#dae8fc;strokeColor=#6c8ebf;" vertex="1" parent="1">
          <mxGeometry x="1430" y="340" width="100" height="40" as="geometry" />
        </mxCell>
        <mxCell id="cy8GEhEIshhKAIJwH2Ll-10" value="" style="endArrow=none;html=1;rounded=0;exitX=0.5;exitY=1;exitDx=0;exitDy=0;" edge="1" parent="1" source="cy8GEhEIshhKAIJwH2Ll-3">
          <mxGeometry width="50" height="50" relative="1" as="geometry">
            <mxPoint x="1910" y="360" as="sourcePoint" />
            <mxPoint x="1890" y="439" as="targetPoint" />
          </mxGeometry>
        </mxCell>
        <mxCell id="cy8GEhEIshhKAIJwH2Ll-11" value="quản lý" style="rhombus;whiteSpace=wrap;html=1;fillColor=#f8cecc;strokeColor=#b85450;" vertex="1" parent="1">
          <mxGeometry x="1700" y="430" width="80" height="60" as="geometry" />
        </mxCell>
        <mxCell id="cy8GEhEIshhKAIJwH2Ll-12" value="" style="endArrow=none;html=1;rounded=0;entryX=0;entryY=0.5;entryDx=0;entryDy=0;exitX=1;exitY=0.5;exitDx=0;exitDy=0;" edge="1" parent="1" source="cy8GEhEIshhKAIJwH2Ll-2" target="cy8GEhEIshhKAIJwH2Ll-11">
          <mxGeometry width="50" height="50" relative="1" as="geometry">
            <mxPoint x="1621" y="460" as="sourcePoint" />
            <mxPoint x="1651" y="460" as="targetPoint" />
          </mxGeometry>
        </mxCell>
        <mxCell id="cy8GEhEIshhKAIJwH2Ll-13" value="" style="endArrow=none;html=1;rounded=0;entryX=0;entryY=0.5;entryDx=0;entryDy=0;" edge="1" parent="1" target="cy8GEhEIshhKAIJwH2Ll-4">
          <mxGeometry width="50" height="50" relative="1" as="geometry">
            <mxPoint x="1780" y="460" as="sourcePoint" />
            <mxPoint x="1710" y="470" as="targetPoint" />
          </mxGeometry>
        </mxCell>
        <mxCell id="cy8GEhEIshhKAIJwH2Ll-14" value="1" style="text;html=1;align=center;verticalAlign=middle;resizable=0;points=[];autosize=1;strokeColor=none;fillColor=none;" vertex="1" parent="1">
          <mxGeometry x="1612" y="430" width="30" height="30" as="geometry" />
        </mxCell>
        <mxCell id="cy8GEhEIshhKAIJwH2Ll-15" value="1" style="text;html=1;align=center;verticalAlign=middle;resizable=0;points=[];autosize=1;strokeColor=none;fillColor=none;" vertex="1" parent="1">
          <mxGeometry x="1790" y="430" width="30" height="30" as="geometry" />
        </mxCell>
        <mxCell id="cy8GEhEIshhKAIJwH2Ll-16" value="tên cầu thủ" style="ellipse;whiteSpace=wrap;html=1;align=center;fillColor=#dae8fc;strokeColor=#6c8ebf;" vertex="1" parent="1">
          <mxGeometry x="1526" y="800" width="100" height="40" as="geometry" />
        </mxCell>
        <mxCell id="cy8GEhEIshhKAIJwH2Ll-17" value="cầu thủ" style="whiteSpace=wrap;html=1;align=center;fillColor=#dae8fc;strokeColor=#6c8ebf;" vertex="1" parent="1">
          <mxGeometry x="1505" y="700" width="131" height="40" as="geometry" />
        </mxCell>
        <mxCell id="cy8GEhEIshhKAIJwH2Ll-18" value="id" style="ellipse;whiteSpace=wrap;html=1;align=center;fontStyle=4;fillColor=#dae8fc;strokeColor=#6c8ebf;" vertex="1" parent="1">
          <mxGeometry x="1840.25" y="780" width="79.5" height="40" as="geometry" />
        </mxCell>
        <mxCell id="cy8GEhEIshhKAIJwH2Ll-19" value="trận đấu" style="whiteSpace=wrap;html=1;align=center;fillColor=#dae8fc;strokeColor=#6c8ebf;" vertex="1" parent="1">
          <mxGeometry x="1870" y="700" width="100" height="40" as="geometry" />
        </mxCell>
        <mxCell id="cy8GEhEIshhKAIJwH2Ll-22" value="" style="endArrow=none;html=1;rounded=0;exitX=0.5;exitY=1;exitDx=0;exitDy=0;entryX=0.5;entryY=1;entryDx=0;entryDy=0;" edge="1" parent="1" source="cy8GEhEIshhKAIJwH2Ll-24" target="cy8GEhEIshhKAIJwH2Ll-17">
          <mxGeometry width="50" height="50" relative="1" as="geometry">
            <mxPoint x="1601" y="630" as="sourcePoint" />
            <mxPoint x="1555" y="740" as="targetPoint" />
          </mxGeometry>
        </mxCell>
        <mxCell id="cy8GEhEIshhKAIJwH2Ll-23" value="" style="endArrow=none;html=1;rounded=0;exitX=0.5;exitY=0;exitDx=0;exitDy=0;exitPerimeter=0;" edge="1" parent="1" source="cy8GEhEIshhKAIJwH2Ll-16">
          <mxGeometry width="50" height="50" relative="1" as="geometry">
            <mxPoint x="1692" y="668" as="sourcePoint" />
            <mxPoint x="1571" y="740" as="targetPoint" />
          </mxGeometry>
        </mxCell>
        <mxCell id="cy8GEhEIshhKAIJwH2Ll-24" value="id" style="ellipse;whiteSpace=wrap;html=1;align=center;fontStyle=4;fillColor=#dae8fc;strokeColor=#6c8ebf;" vertex="1" parent="1">
          <mxGeometry x="1641" y="790" width="100" height="40" as="geometry" />
        </mxCell>
        <mxCell id="cy8GEhEIshhKAIJwH2Ll-25" value="" style="endArrow=none;html=1;rounded=0;exitX=0.5;exitY=0;exitDx=0;exitDy=0;" edge="1" parent="1" source="cy8GEhEIshhKAIJwH2Ll-18">
          <mxGeometry width="50" height="50" relative="1" as="geometry">
            <mxPoint x="2026" y="682" as="sourcePoint" />
            <mxPoint x="1920" y="741" as="targetPoint" />
          </mxGeometry>
        </mxCell>
        <mxCell id="cy8GEhEIshhKAIJwH2Ll-26" value="có" style="rhombus;whiteSpace=wrap;html=1;fillColor=#f8cecc;strokeColor=#b85450;" vertex="1" parent="1">
          <mxGeometry x="1710" y="690" width="80" height="60" as="geometry" />
        </mxCell>
        <mxCell id="cy8GEhEIshhKAIJwH2Ll-27" value="" style="endArrow=none;html=1;rounded=0;entryX=0;entryY=0.5;entryDx=0;entryDy=0;exitX=1;exitY=0.5;exitDx=0;exitDy=0;" edge="1" parent="1" source="cy8GEhEIshhKAIJwH2Ll-17" target="cy8GEhEIshhKAIJwH2Ll-26">
          <mxGeometry width="50" height="50" relative="1" as="geometry">
            <mxPoint x="1655" y="720" as="sourcePoint" />
            <mxPoint x="1566" y="730" as="targetPoint" />
          </mxGeometry>
        </mxCell>
        <mxCell id="cy8GEhEIshhKAIJwH2Ll-28" value="" style="endArrow=none;html=1;rounded=0;entryX=0;entryY=0.5;entryDx=0;entryDy=0;" edge="1" parent="1" target="cy8GEhEIshhKAIJwH2Ll-19">
          <mxGeometry width="50" height="50" relative="1" as="geometry">
            <mxPoint x="1790" y="720" as="sourcePoint" />
            <mxPoint x="1720" y="730" as="targetPoint" />
          </mxGeometry>
        </mxCell>
        <mxCell id="cy8GEhEIshhKAIJwH2Ll-29" value="n" style="text;html=1;align=center;verticalAlign=middle;resizable=0;points=[];autosize=1;strokeColor=none;fillColor=none;" vertex="1" parent="1">
          <mxGeometry x="1646" y="690" width="30" height="30" as="geometry" />
        </mxCell>
        <mxCell id="cy8GEhEIshhKAIJwH2Ll-30" value="1" style="text;html=1;align=center;verticalAlign=middle;resizable=0;points=[];autosize=1;strokeColor=none;fillColor=none;" vertex="1" parent="1">
          <mxGeometry x="1800" y="690" width="30" height="30" as="geometry" />
        </mxCell>
        <mxCell id="cy8GEhEIshhKAIJwH2Ll-31" value="tên vị trí" style="ellipse;whiteSpace=wrap;html=1;align=center;fillColor=#dae8fc;strokeColor=#6c8ebf;" vertex="1" parent="1">
          <mxGeometry x="1110" y="480" width="100" height="40" as="geometry" />
        </mxCell>
        <mxCell id="cy8GEhEIshhKAIJwH2Ll-32" value="vị trí" style="whiteSpace=wrap;html=1;align=center;fillColor=#dae8fc;strokeColor=#6c8ebf;" vertex="1" parent="1">
          <mxGeometry x="1260" y="555" width="90" height="40" as="geometry" />
        </mxCell>
        <mxCell id="cy8GEhEIshhKAIJwH2Ll-33" value="" style="endArrow=none;html=1;rounded=0;exitX=0.5;exitY=1;exitDx=0;exitDy=0;entryX=0;entryY=0.5;entryDx=0;entryDy=0;" edge="1" parent="1" source="cy8GEhEIshhKAIJwH2Ll-35" target="cy8GEhEIshhKAIJwH2Ll-32">
          <mxGeometry width="50" height="50" relative="1" as="geometry">
            <mxPoint x="1276" y="490" as="sourcePoint" />
            <mxPoint x="1230" y="600" as="targetPoint" />
          </mxGeometry>
        </mxCell>
        <mxCell id="cy8GEhEIshhKAIJwH2Ll-34" value="" style="endArrow=none;html=1;rounded=0;entryX=0;entryY=0.5;entryDx=0;entryDy=0;exitX=0.712;exitY=0.95;exitDx=0;exitDy=0;exitPerimeter=0;" edge="1" parent="1" source="cy8GEhEIshhKAIJwH2Ll-31" target="cy8GEhEIshhKAIJwH2Ll-32">
          <mxGeometry width="50" height="50" relative="1" as="geometry">
            <mxPoint x="1367" y="528" as="sourcePoint" />
            <mxPoint x="1331" y="570" as="targetPoint" />
          </mxGeometry>
        </mxCell>
        <mxCell id="cy8GEhEIshhKAIJwH2Ll-35" value="id" style="ellipse;whiteSpace=wrap;html=1;align=center;fontStyle=4;fillColor=#dae8fc;strokeColor=#6c8ebf;" vertex="1" parent="1">
          <mxGeometry x="1100" y="605" width="100" height="40" as="geometry" />
        </mxCell>
        <mxCell id="cy8GEhEIshhKAIJwH2Ll-38" value="" style="endArrow=none;html=1;rounded=0;exitX=0.5;exitY=0;exitDx=0;exitDy=0;entryX=0.5;entryY=1;entryDx=0;entryDy=0;" edge="1" parent="1" source="cy8GEhEIshhKAIJwH2Ll-39" target="cy8GEhEIshhKAIJwH2Ll-2">
          <mxGeometry width="50" height="50" relative="1" as="geometry">
            <mxPoint x="1630" y="570" as="sourcePoint" />
            <mxPoint x="1567" y="490" as="targetPoint" />
          </mxGeometry>
        </mxCell>
        <mxCell id="cy8GEhEIshhKAIJwH2Ll-39" value="quản lý" style="rhombus;whiteSpace=wrap;html=1;fillColor=#f8cecc;strokeColor=#b85450;" vertex="1" parent="1">
          <mxGeometry x="1527" y="555" width="80" height="60" as="geometry" />
        </mxCell>
        <mxCell id="cy8GEhEIshhKAIJwH2Ll-41" value="" style="endArrow=none;html=1;rounded=0;exitX=0.5;exitY=1;exitDx=0;exitDy=0;" edge="1" parent="1" source="cy8GEhEIshhKAIJwH2Ll-39" target="cy8GEhEIshhKAIJwH2Ll-17">
          <mxGeometry width="50" height="50" relative="1" as="geometry">
            <mxPoint x="1640" y="565" as="sourcePoint" />
            <mxPoint x="1637" y="491" as="targetPoint" />
          </mxGeometry>
        </mxCell>
        <mxCell id="cy8GEhEIshhKAIJwH2Ll-42" value="n" style="text;html=1;align=center;verticalAlign=middle;resizable=0;points=[];autosize=1;strokeColor=none;fillColor=none;" vertex="1" parent="1">
          <mxGeometry x="1570" y="670" width="30" height="30" as="geometry" />
        </mxCell>
        <mxCell id="cy8GEhEIshhKAIJwH2Ll-44" value="1" style="text;html=1;align=center;verticalAlign=middle;resizable=0;points=[];autosize=1;strokeColor=none;fillColor=none;" vertex="1" parent="1">
          <mxGeometry x="1586" y="480" width="30" height="30" as="geometry" />
        </mxCell>
        <mxCell id="cy8GEhEIshhKAIJwH2Ll-45" value="có" style="rhombus;whiteSpace=wrap;html=1;fillColor=#f8cecc;strokeColor=#b85450;" vertex="1" parent="1">
          <mxGeometry x="1380" y="610" width="80" height="60" as="geometry" />
        </mxCell>
        <mxCell id="cy8GEhEIshhKAIJwH2Ll-46" value="" style="endArrow=none;html=1;rounded=0;exitX=1;exitY=1;exitDx=0;exitDy=0;entryX=0;entryY=0;entryDx=0;entryDy=0;" edge="1" parent="1" source="cy8GEhEIshhKAIJwH2Ll-45" target="cy8GEhEIshhKAIJwH2Ll-17">
          <mxGeometry width="50" height="50" relative="1" as="geometry">
            <mxPoint x="1626" y="625" as="sourcePoint" />
            <mxPoint x="1626" y="710" as="targetPoint" />
          </mxGeometry>
        </mxCell>
        <mxCell id="cy8GEhEIshhKAIJwH2Ll-47" value="" style="endArrow=none;html=1;rounded=0;exitX=0;exitY=0;exitDx=0;exitDy=0;" edge="1" parent="1" source="cy8GEhEIshhKAIJwH2Ll-45">
          <mxGeometry width="50" height="50" relative="1" as="geometry">
            <mxPoint x="1450" y="665" as="sourcePoint" />
            <mxPoint x="1350" y="590" as="targetPoint" />
          </mxGeometry>
        </mxCell>
        <mxCell id="cy8GEhEIshhKAIJwH2Ll-48" value="1" style="text;html=1;align=center;verticalAlign=middle;resizable=0;points=[];autosize=1;strokeColor=none;fillColor=none;" vertex="1" parent="1">
          <mxGeometry x="1492" y="670" width="30" height="30" as="geometry" />
        </mxCell>
        <mxCell id="cy8GEhEIshhKAIJwH2Ll-49" value="n" style="text;html=1;align=center;verticalAlign=middle;resizable=0;points=[];autosize=1;strokeColor=none;fillColor=none;" vertex="1" parent="1">
          <mxGeometry x="1350" y="565" width="30" height="30" as="geometry" />
        </mxCell>
        <mxCell id="cy8GEhEIshhKAIJwH2Ll-50" value="ngày giờ đấu" style="ellipse;whiteSpace=wrap;html=1;align=center;fontStyle=4;fillColor=#dae8fc;strokeColor=#6c8ebf;" vertex="1" parent="1">
          <mxGeometry x="1940" y="780" width="100" height="40" as="geometry" />
        </mxCell>
        <mxCell id="cy8GEhEIshhKAIJwH2Ll-51" value="" style="endArrow=none;html=1;rounded=0;exitX=0.5;exitY=0;exitDx=0;exitDy=0;entryX=0.5;entryY=1;entryDx=0;entryDy=0;" edge="1" parent="1" source="cy8GEhEIshhKAIJwH2Ll-50" target="cy8GEhEIshhKAIJwH2Ll-19">
          <mxGeometry width="50" height="50" relative="1" as="geometry">
            <mxPoint x="1902" y="793" as="sourcePoint" />
            <mxPoint x="1930" y="751" as="targetPoint" />
          </mxGeometry>
        </mxCell>
        <mxCell id="cy8GEhEIshhKAIJwH2Ll-53" value="ngày sinh" style="ellipse;whiteSpace=wrap;html=1;align=center;fillColor=#dae8fc;strokeColor=#6c8ebf;" vertex="1" parent="1">
          <mxGeometry x="1950" y="330" width="90" height="40" as="geometry" />
        </mxCell>
        <mxCell id="cy8GEhEIshhKAIJwH2Ll-54" value="địa chỉ" style="ellipse;whiteSpace=wrap;html=1;align=center;fillColor=#dae8fc;strokeColor=#6c8ebf;" vertex="1" parent="1">
          <mxGeometry x="2023" y="370" width="90" height="40" as="geometry" />
        </mxCell>
        <mxCell id="cy8GEhEIshhKAIJwH2Ll-55" value="" style="endArrow=none;html=1;rounded=0;exitX=0.282;exitY=0.99;exitDx=0;exitDy=0;exitPerimeter=0;" edge="1" parent="1" source="cy8GEhEIshhKAIJwH2Ll-53">
          <mxGeometry width="50" height="50" relative="1" as="geometry">
            <mxPoint x="1910" y="370" as="sourcePoint" />
            <mxPoint x="1890" y="440" as="targetPoint" />
          </mxGeometry>
        </mxCell>
        <mxCell id="cy8GEhEIshhKAIJwH2Ll-56" value="" style="endArrow=none;html=1;rounded=0;exitX=0;exitY=1;exitDx=0;exitDy=0;entryX=0.598;entryY=0.01;entryDx=0;entryDy=0;entryPerimeter=0;" edge="1" parent="1" source="cy8GEhEIshhKAIJwH2Ll-54" target="cy8GEhEIshhKAIJwH2Ll-4">
          <mxGeometry width="50" height="50" relative="1" as="geometry">
            <mxPoint x="1981" y="390" as="sourcePoint" />
            <mxPoint x="1940" y="450" as="targetPoint" />
          </mxGeometry>
        </mxCell>
        <mxCell id="cy8GEhEIshhKAIJwH2Ll-57" value="ngày sinh" style="ellipse;whiteSpace=wrap;html=1;align=center;fillColor=#dae8fc;strokeColor=#6c8ebf;" vertex="1" parent="1">
          <mxGeometry x="1415" y="800" width="100" height="40" as="geometry" />
        </mxCell>
        <mxCell id="cy8GEhEIshhKAIJwH2Ll-58" value="địa chỉ" style="ellipse;whiteSpace=wrap;html=1;align=center;fillColor=#dae8fc;strokeColor=#6c8ebf;" vertex="1" parent="1">
          <mxGeometry x="1360" y="750" width="100" height="40" as="geometry" />
        </mxCell>
        <mxCell id="cy8GEhEIshhKAIJwH2Ll-59" value="" style="endArrow=none;html=1;rounded=0;exitX=0.73;exitY=0.09;exitDx=0;exitDy=0;exitPerimeter=0;entryX=0.5;entryY=1;entryDx=0;entryDy=0;" edge="1" parent="1" source="cy8GEhEIshhKAIJwH2Ll-57" target="cy8GEhEIshhKAIJwH2Ll-17">
          <mxGeometry width="50" height="50" relative="1" as="geometry">
            <mxPoint x="1586" y="810" as="sourcePoint" />
            <mxPoint x="1575" y="740" as="targetPoint" />
          </mxGeometry>
        </mxCell>
        <mxCell id="cy8GEhEIshhKAIJwH2Ll-60" value="" style="endArrow=none;html=1;rounded=0;exitX=1;exitY=0.5;exitDx=0;exitDy=0;entryX=0.5;entryY=1;entryDx=0;entryDy=0;" edge="1" parent="1" source="cy8GEhEIshhKAIJwH2Ll-58" target="cy8GEhEIshhKAIJwH2Ll-17">
          <mxGeometry width="50" height="50" relative="1" as="geometry">
            <mxPoint x="1498" y="814" as="sourcePoint" />
            <mxPoint x="1535" y="750" as="targetPoint" />
          </mxGeometry>
        </mxCell>
      </root>
    </mxGraphModel>
  </diagram>
</mxfile>
